<svg width="118" height="24" viewBox="0 0 118 24" fill="none" xmlns="http://www.w3.org/2000/svg">
<path d="M12 1.95C6.48 1.95 2 6.43 2 11.95C2 17.47 6.48 21.95 12 21.95H17V19.95H12C7.66 19.95 4 16.29 4 11.95C4 7.61 7.66 3.95 12 3.95C16.34 3.95 20 7.61 20 11.95V13.38C20 14.17 19.29 14.95 18.5 14.95C17.71 14.95 17 14.17 17 13.38V11.95C17 9.19 14.76 6.95 12 6.95C9.24 6.95 7 9.19 7 11.95C7 14.71 9.24 16.95 12 16.95C13.38 16.95 14.64 16.39 15.54 15.48C16.19 16.37 17.31 16.95 18.5 16.95C20.47 16.95 22 15.35 22 13.38V11.95C22 6.43 17.52 1.95 12 1.95V1.95ZM12 14.95C10.34 14.95 9 13.61 9 11.95C9 10.29 10.34 8.95 12 8.95C13.66 8.95 15 10.29 15 11.95C15 13.61 13.66 14.95 12 14.95Z" fill="#40B7FB"/>
<path d="M32.112 8.37C33.432 8.37 34.44 8.694 35.136 9.342C35.844 9.99 36.198 10.956 36.198 12.24V18H34.56V16.74C34.272 17.184 33.858 17.526 33.318 17.766C32.79 17.994 32.16 18.108 31.428 18.108C30.36 18.108 29.502 17.85 28.854 17.334C28.218 16.818 27.9 16.14 27.9 15.3C27.9 14.46 28.206 13.788 28.818 13.284C29.43 12.768 30.402 12.51 31.734 12.51H34.47V12.168C34.47 11.424 34.254 10.854 33.822 10.458C33.39 10.062 32.754 9.864 31.914 9.864C31.35 9.864 30.798 9.96 30.258 10.152C29.718 10.332 29.262 10.578 28.89 10.89L28.17 9.594C28.662 9.198 29.25 8.898 29.934 8.694C30.618 8.478 31.344 8.37 32.112 8.37ZM31.716 16.776C32.376 16.776 32.946 16.632 33.426 16.344C33.906 16.044 34.254 15.624 34.47 15.084V13.752H31.806C30.342 13.752 29.61 14.244 29.61 15.228C29.61 15.708 29.796 16.086 30.168 16.362C30.54 16.638 31.056 16.776 31.716 16.776ZM48.4485 4.644V18H46.7925V16.488C46.4085 17.016 45.9225 17.418 45.3345 17.694C44.7465 17.97 44.0985 18.108 43.3905 18.108C42.4665 18.108 41.6385 17.904 40.9065 17.496C40.1745 17.088 39.5985 16.518 39.1785 15.786C38.7705 15.042 38.5665 14.19 38.5665 13.23C38.5665 12.27 38.7705 11.424 39.1785 10.692C39.5985 9.96 40.1745 9.39 40.9065 8.982C41.6385 8.574 42.4665 8.37 43.3905 8.37C44.0745 8.37 44.7045 8.502 45.2805 8.766C45.8565 9.018 46.3365 9.396 46.7205 9.9V4.644H48.4485ZM43.5345 16.596C44.1345 16.596 44.6805 16.458 45.1725 16.182C45.6645 15.894 46.0485 15.498 46.3245 14.994C46.6005 14.478 46.7385 13.89 46.7385 13.23C46.7385 12.57 46.6005 11.988 46.3245 11.484C46.0485 10.968 45.6645 10.572 45.1725 10.296C44.6805 10.02 44.1345 9.882 43.5345 9.882C42.9225 9.882 42.3705 10.02 41.8785 10.296C41.3985 10.572 41.0145 10.968 40.7265 11.484C40.4505 11.988 40.3125 12.57 40.3125 13.23C40.3125 13.89 40.4505 14.478 40.7265 14.994C41.0145 15.498 41.3985 15.894 41.8785 16.182C42.3705 16.458 42.9225 16.596 43.5345 16.596ZM53.3741 10.062C53.6741 9.51 54.1181 9.09 54.7061 8.802C55.2941 8.514 56.0081 8.37 56.8481 8.37V10.044C56.7521 10.032 56.6201 10.026 56.4521 10.026C55.5161 10.026 54.7781 10.308 54.2381 10.872C53.7101 11.424 53.4461 12.216 53.4461 13.248V18H51.7181V8.46H53.3741V10.062ZM67.512 13.284C67.512 13.416 67.5 13.59 67.476 13.806H59.736C59.844 14.646 60.21 15.324 60.834 15.84C61.47 16.344 62.256 16.596 63.192 16.596C64.332 16.596 65.25 16.212 65.946 15.444L66.9 16.56C66.468 17.064 65.928 17.448 65.28 17.712C64.644 17.976 63.93 18.108 63.138 18.108C62.13 18.108 61.236 17.904 60.456 17.496C59.676 17.076 59.07 16.494 58.638 15.75C58.218 15.006 58.008 14.166 58.008 13.23C58.008 12.306 58.212 11.472 58.62 10.728C59.04 9.984 59.61 9.408 60.33 9C61.062 8.58 61.884 8.37 62.796 8.37C63.708 8.37 64.518 8.58 65.226 9C65.946 9.408 66.504 9.984 66.9 10.728C67.308 11.472 67.512 12.324 67.512 13.284ZM62.796 9.828C61.968 9.828 61.272 10.08 60.708 10.584C60.156 11.088 59.832 11.748 59.736 12.564H65.856C65.76 11.76 65.43 11.106 64.866 10.602C64.314 10.086 63.624 9.828 62.796 9.828ZM72.6474 18.108C71.8674 18.108 71.1174 18.006 70.3974 17.802C69.6774 17.586 69.1134 17.316 68.7054 16.992L69.4254 15.624C69.8454 15.924 70.3554 16.164 70.9554 16.344C71.5554 16.524 72.1614 16.614 72.7734 16.614C74.2854 16.614 75.0414 16.182 75.0414 15.318C75.0414 15.03 74.9394 14.802 74.7354 14.634C74.5314 14.466 74.2734 14.346 73.9614 14.274C73.6614 14.19 73.2294 14.1 72.6654 14.004C71.8974 13.884 71.2674 13.746 70.7754 13.59C70.2954 13.434 69.8814 13.17 69.5334 12.798C69.1854 12.426 69.0114 11.904 69.0114 11.232C69.0114 10.368 69.3714 9.678 70.0914 9.162C70.8114 8.634 71.7774 8.37 72.9894 8.37C73.6254 8.37 74.2614 8.448 74.8974 8.604C75.5334 8.76 76.0554 8.97 76.4634 9.234L75.7254 10.602C74.9454 10.098 74.0274 9.846 72.9714 9.846C72.2394 9.846 71.6814 9.966 71.2974 10.206C70.9134 10.446 70.7214 10.764 70.7214 11.16C70.7214 11.472 70.8294 11.718 71.0454 11.898C71.2614 12.078 71.5254 12.21 71.8374 12.294C72.1614 12.378 72.6114 12.474 73.1874 12.582C73.9554 12.714 74.5734 12.858 75.0414 13.014C75.5214 13.158 75.9294 13.41 76.2654 13.77C76.6014 14.13 76.7694 14.634 76.7694 15.282C76.7694 16.146 76.3974 16.836 75.6534 17.352C74.9214 17.856 73.9194 18.108 72.6474 18.108ZM83.087 18.108C82.115 18.108 81.245 17.898 80.477 17.478C79.721 17.058 79.127 16.482 78.695 15.75C78.263 15.006 78.047 14.166 78.047 13.23C78.047 12.294 78.263 11.46 78.695 10.728C79.127 9.984 79.721 9.408 80.477 9C81.245 8.58 82.115 8.37 83.087 8.37C83.951 8.37 84.719 8.544 85.391 8.892C86.075 9.24 86.603 9.744 86.975 10.404L85.661 11.25C85.361 10.794 84.989 10.452 84.545 10.224C84.101 9.996 83.609 9.882 83.069 9.882C82.445 9.882 81.881 10.02 81.377 10.296C80.885 10.572 80.495 10.968 80.207 11.484C79.931 11.988 79.793 12.57 79.793 13.23C79.793 13.902 79.931 14.496 80.207 15.012C80.495 15.516 80.885 15.906 81.377 16.182C81.881 16.458 82.445 16.596 83.069 16.596C83.609 16.596 84.101 16.482 84.545 16.254C84.989 16.026 85.361 15.684 85.661 15.228L86.975 16.056C86.603 16.716 86.075 17.226 85.391 17.586C84.719 17.934 83.951 18.108 83.087 18.108ZM82.241 22.032C81.617 22.032 81.083 21.9 80.639 21.636L81.017 20.754C81.377 20.958 81.785 21.06 82.241 21.06C82.913 21.06 83.249 20.82 83.249 20.34C83.249 20.124 83.165 19.95 82.997 19.818C82.829 19.698 82.571 19.638 82.223 19.638H81.737L82.187 17.874H83.177L82.907 18.9C83.411 18.948 83.795 19.104 84.059 19.368C84.335 19.644 84.473 19.986 84.473 20.394C84.473 20.898 84.269 21.294 83.861 21.582C83.453 21.882 82.913 22.032 82.241 22.032ZM89.2122 8.46H90.9402V18H89.2122V8.46ZM90.0762 6.624C89.7402 6.624 89.4582 6.516 89.2302 6.3C89.0142 6.084 88.9062 5.82 88.9062 5.508C88.9062 5.196 89.0142 4.932 89.2302 4.716C89.4582 4.488 89.7402 4.374 90.0762 4.374C90.4122 4.374 90.6882 4.482 90.9042 4.698C91.1322 4.902 91.2462 5.16 91.2462 5.472C91.2462 5.796 91.1322 6.072 90.9042 6.3C90.6882 6.516 90.4122 6.624 90.0762 6.624Z" fill="white"/>
</svg>
